<?xml version="1.0" encoding="UTF-8" standalone="no"?>
<svg
   version="1.1"
   width="8"
   height="8"
   id="svg133"
   sodipodi:docname="bg.svg"
   inkscape:version="1.2 (dc2aeda, 2022-05-15)"
   xmlns:inkscape="http://www.inkscape.org/namespaces/inkscape"
   xmlns:sodipodi="http://sodipodi.sourceforge.net/DTD/sodipodi-0.dtd"
   xmlns="http://www.w3.org/2000/svg"
   xmlns:svg="http://www.w3.org/2000/svg">
  <defs
     id="defs137" />
  <sodipodi:namedview
     id="namedview135"
     pagecolor="#ffffff"
     bordercolor="#666666"
     borderopacity="1.0"
     inkscape:showpageshadow="2"
     inkscape:pageopacity="0.0"
     inkscape:pagecheckerboard="0"
     inkscape:deskcolor="#d1d1d1"
     showgrid="false"
     inkscape:zoom="43.621329"
     inkscape:cx="11.301811"
     inkscape:cy="2.1434468"
     inkscape:window-width="1920"
     inkscape:window-height="1027"
     inkscape:window-x="1440"
     inkscape:window-y="25"
     inkscape:window-maximized="1"
     inkscape:current-layer="svg133" />
  <polygon
     class="bc002d"
     points="0,0 0,1 4,4"
     id="polygon99"
     style="fill:#f4eed7" />
  <polygon
     class="bc002d"
     points="1,0 2,0 4,4"
     id="polygon101"
     style="fill:#f4eed7" />
  <polygon
     class="bc002d"
     points="3,0 4,0 4,4"
     id="polygon103"
     style="fill:#f4eed7" />
  <polygon
     class="bc002d"
     points="5,0 6,0 4,4"
     id="polygon105"
     style="fill:#f4eed7" />
  <polygon
     class="bc002d"
     points="7,0 8,0 4,4"
     id="polygon107"
     style="fill:#f4eed7" />
  <polygon
     class="bc002d"
     points="8,1 8,2 4,4"
     id="polygon109"
     style="fill:#f4eed7" />
  <polygon
     class="bc002d"
     points="8,3 8,4 4,4"
     id="polygon111"
     style="fill:#f4eed7" />
  <polygon
     class="bc002d"
     points="8,5 8,6 4,4"
     id="polygon113"
     style="fill:#f4eed7" />
  <polygon
     class="bc002d"
     points="8,7 8,8 4,4"
     id="polygon115"
     style="fill:#f4eed7" />
  <polygon
     class="bc002d"
     points="7,8 6,8 4,4"
     id="polygon117"
     style="fill:#f4eed7" />
  <polygon
     class="bc002d"
     points="5,8 4,8 4,4"
     id="polygon119"
     style="fill:#f4eed7" />
  <polygon
     class="bc002d"
     points="3,8 2,8 4,4"
     id="polygon121"
     style="fill:#f4eed7" />
  <polygon
     class="bc002d"
     points="1,8 0,8 4,4"
     id="polygon123"
     style="fill:#f4eed7" />
  <polygon
     class="bc002d"
     points="0,7 0,6 4,4"
     id="polygon125"
     style="fill:#f4eed7" />
  <polygon
     class="bc002d"
     points="0,5 0,4 4,4"
     id="polygon127"
     style="fill:#f4eed7" />
  <polygon
     class="bc002d"
     points="0,3 0,2 4,4"
     id="polygon129"
     style="fill:#f4eed7" />
  <style
     id="style131">
	.bc002d{
	fill: #bc002d;
	}	
	</style>
</svg>
